<svg xmlns="http://www.w3.org/2000/svg" xmlns:xlink="http://www.w3.org/1999/xlink" viewBox="0 0 824.64 1025.24"><defs><style>.cls-1{fill:url(#Gradiente_sem_nome_48);}.cls-2{fill:url(#Gradiente_sem_nome_48-2);}.cls-3{fill:url(#Gradiente_sem_nome_48-3);}.cls-4{fill:url(#Gradiente_sem_nome_48-6);}.cls-5{fill:#050505;}</style><radialGradient id="Gradiente_sem_nome_48" cx="452.4" cy="577.62" r="310.53" gradientUnits="userSpaceOnUse"><stop offset="0.08" stop-color="#ffedcb"/><stop offset="0.51" stop-color="#ffed4b"/><stop offset="1" stop-color="#fdcd00"/></radialGradient><radialGradient id="Gradiente_sem_nome_48-2" cx="757.68" cy="885.78" fx="926.6413953645758" fy="1104.6270011142797" r="276.48" xlink:href="#Gradiente_sem_nome_48"/><radialGradient id="Gradiente_sem_nome_48-3" cx="429.36" cy="646.74" r="439.36" xlink:href="#Gradiente_sem_nome_48"/><radialGradient id="Gradiente_sem_nome_48-6" cx="492.72" cy="859.86" r="633.11" xlink:href="#Gradiente_sem_nome_48"/></defs><title>Ativo 2</title><g id="Camada_2" data-name="Camada 2"><g id="Camada_2-2" data-name="Camada 2"><path class="cls-1" d="M206.88,400.53c-31.37-15.46-117.46,42.69-83.21,109,6,11.59,29.89,31.09,51.36,41.63,25,12.25,52.3,21.7,70.5,25.48,83.51,17.32,150.74,20.12,150.74,20.12s-79-34.24-108.51-80.08C269.57,488.41,231.72,412.77,206.88,400.53Z"/><path class="cls-2" d="M726.71,883.41c57.61-56.67,74.66-118.27,78.24-153.15,1.93-18.71,1.29-146.45-241-203-10.36-2.41-16.26-4.29-16.26-4.29s55.12,24.19,95.16,53.17c31.5,22.8,39.64,40,51.48,54.72,9.93,12.33,20.16,76.68,20.16,76.68s10.39,16.55,12.24,19.44C762.36,782.82,726.71,883.41,726.71,883.41Z"/><path class="cls-3" d="M312.44,419.8c32.4,70.56,130.89,83.31,136.33,84,91.19,12,339.48,64.44,355,210.6l0,24.77c4.23-22.88,13.63-49.25,19.13-105.89,20.45-210.56-145.54-366.44-377.3-366.14-19.65,0-35.18-2-57.8,4.4-25.62,9.42-52.14,29.17-65.76,49.74C300.43,354,301.76,396.54,312.44,419.8Z"/><path class="cls-3" d="M685.67,671.94c-39.51-26.22-83.14-65-297.11-75.6-193.44-9.6-255-66.28-264.48-87.48-10.86-24.4-6.56-43.81,9.33-77.22A382.63,382.63,0,0,0,68,606.32c0,13.25,1.25,23.62,4.73,29.84,20.36,36.36,56.48,68.2,96.12,78.76,107.55,28.63,259.55-20.08,268.92-23,63.36-19.44,150.24-11.77,192.52,12,98,55.15,92.76,146.92,92.88,184.32,1.11-1.31,5.75-8,6.84-9.36C754.21,801.41,768.39,726.82,685.67,671.94Z"/><path class="cls-3" d="M567.84,1005c70.8-34.76,128.43-81,107.84-140.52-4.09-11.83-20.75-65-83.24-83.2-52.32-15.25-136.1-3.22-277.84,51.46-58.44,22.55-109,20-147.84,5.76C146.86,831.21,85.2,800.1,83,747.28c0,.66-5.9,5.84,2.56,27.62,37.43,96.37,204.77,250.34,360.08,250.34A377.07,377.07,0,0,0,567.84,1005Z"/><path class="cls-4" d="M81.15,756.18c-.42-8.86,2.8-11.25,10.53-14.76,11.88-5.4,28.23,8.94,29.88,10,28.68,17.53,87.84,41.31,109.8,45.63,118.3,23.27,173.07,4.33,173.07,4.33s-61.27,31.83-117.27,45.21c-30.83,7.37-57.6,14.4-114.48-3.6C140.67,832.81,82.7,788.7,81.15,756.18Z"/><path class="cls-5" d="M334.92,63.54C358.44,12.18,358.05,15.63,372.36,4,378-.52,389.72-.67,392.73.9c18.35,9.57,74.19,81.84,59.62,234,0,0-24.79-117.84-111.19-141.6,0,0,52.35-22.32,41-79.68C379.6.46,334.92,63.54,334.92,63.54Z"/><path class="cls-5" d="M485.16,233.75S585.6,59.87,820,89c0,0-74.16,167.58-317.16,161.1l81-59.94,52.08-30.12,66-28.32,59.76-19.68L723.82,118,692,126l-62.88,22.8-58.8,30Z"/><path class="cls-5" d="M390.12,250.31S241.92,328.86,0,295.38c0,0,180.59-241.68,403.2-72.12L415,233.7s-195.84-93.84-329,22.44C85.92,256.14,232.8,177.66,390.12,250.31Z"/></g></g></svg>